<svg width="39" height="39" viewBox="0 0 39 39" fill="none" xmlns="http://www.w3.org/2000/svg">
<path opacity="0.77" fill-rule="evenodd" clip-rule="evenodd" d="M19.8561 6.24049C20.9585 4.94568 22.4545 4.11999 24.0728 3.91314C25.6911 3.70628 27.3245 4.13196 28.6768 5.11299L28.9618 5.33165L29.4732 5.74507C30.171 6.30946 30.7463 7.03115 31.1592 7.85989C31.5721 8.68863 31.8127 9.60452 31.8641 10.5438L31.8736 10.9247V35.8749C31.8731 36.3104 31.7186 36.7292 31.4416 37.0458C31.1645 37.3624 30.7859 37.5529 30.383 37.5784C29.9802 37.604 29.5835 37.4625 29.274 37.1831C28.9645 36.9036 28.7657 36.5072 28.718 36.0748L28.7069 35.8749V10.9247C28.707 10.4985 28.6245 10.077 28.4647 9.68716C28.3049 9.29735 28.0714 8.94789 27.7791 8.66119L27.5732 8.4784L27.0618 8.06499C26.4777 7.59216 25.7755 7.31937 25.0461 7.28191C24.3167 7.24445 23.5936 7.44404 22.9705 7.85486L22.7282 8.03082L23.9284 8.77907C25.3327 9.65365 26.3726 11.076 26.8339 12.7532C27.2952 14.4303 27.1427 16.2345 26.4079 17.7939L26.2464 18.1134L25.4547 19.5928C25.2607 19.9549 24.9502 20.2277 24.5822 20.3593C24.2142 20.4909 23.8143 20.4723 23.4582 20.3069L23.2919 20.2181L9.58024 11.6764C9.24424 11.467 8.99121 11.1317 8.8692 10.7343C8.7472 10.3368 8.76471 9.90491 8.91841 9.52049L9.00074 9.34282L9.79241 7.8634C10.603 6.34827 11.9213 5.22627 13.4757 4.72856C15.0301 4.23085 16.7023 4.39535 18.1477 5.18815L18.4437 5.3624L19.8561 6.24049ZM10.8944 26.3032C11.2581 26.5297 11.5234 26.9028 11.6321 27.3405C11.7408 27.7781 11.6839 28.2444 11.4739 28.6367L10.6822 30.1161C10.579 30.312 10.4409 30.4839 10.2759 30.6219C10.1109 30.76 9.92218 30.8614 9.72067 30.9205C9.51915 30.9795 9.30881 30.9949 9.10174 30.9659C8.89467 30.9368 8.69497 30.8639 8.51414 30.7512C8.3333 30.6386 8.17491 30.4885 8.04807 30.3095C7.92123 30.1305 7.82845 29.9263 7.77508 29.7085C7.72171 29.4906 7.7088 29.2636 7.73708 29.0404C7.76537 28.8172 7.8343 28.6022 7.93991 28.4078L8.73157 26.9284C8.94154 26.536 9.28737 26.2497 9.69297 26.1325C10.0986 26.0152 10.5307 26.0766 10.8944 26.3032ZM14.4284 26.5321C14.6291 26.1518 14.9574 25.8691 15.3455 25.7423C15.7337 25.6155 16.1522 25.6542 16.5147 25.8505C16.8771 26.0468 17.156 26.3858 17.2937 26.7974C17.4313 27.209 17.4174 27.6619 17.2547 28.0627L17.1707 28.2404L16.3791 29.7198C16.1766 30.0963 15.8486 30.3752 15.462 30.4996C15.0754 30.624 14.6594 30.5844 14.2989 30.3891C13.9384 30.1937 13.6607 29.8573 13.5223 29.4484C13.3839 29.0396 13.3954 28.5892 13.5544 28.1891L13.6367 28.0115L14.4284 26.5321ZM8.36424 20.7818C8.72789 21.0084 8.99324 21.3815 9.10191 21.8191C9.21059 22.2567 9.15369 22.723 8.94374 23.1154L8.15207 24.5948C7.94062 24.984 7.59508 25.2671 7.19086 25.3824C6.78664 25.4977 6.35656 25.4358 5.99447 25.2103C5.63238 24.9847 5.36768 24.6138 5.25814 24.1784C5.14859 23.7431 5.20309 23.2786 5.40974 22.8865L6.20141 21.4071C6.41138 21.0147 6.7572 20.7284 7.16281 20.6112C7.56841 20.4939 8.00058 20.5553 8.36424 20.7818ZM14.0611 20.3855C14.4247 20.612 14.6901 20.9852 14.7987 21.4228C14.9074 21.8604 14.8505 22.3267 14.6406 22.7191L13.8489 24.1985C13.7457 24.3943 13.6076 24.5662 13.4426 24.7043C13.2776 24.8423 13.0889 24.9438 12.8873 25.0028C12.6858 25.0618 12.4755 25.0773 12.2684 25.0482C12.0613 25.0192 11.8616 24.9462 11.6808 24.8336C11.5 24.7209 11.3416 24.5708 11.2147 24.3918C11.0879 24.2129 10.9951 24.0086 10.9417 23.7908C10.8884 23.573 10.8755 23.3459 10.9038 23.1227C10.932 22.8995 11.001 22.6845 11.1066 22.4902L11.8982 21.0107C12.1082 20.6184 12.454 20.3321 12.8596 20.2148C13.2652 20.0976 13.6974 20.159 14.0611 20.3855ZM17.5951 20.6144C17.7965 20.236 18.1245 19.9551 18.5118 19.8293C18.899 19.7035 19.3163 19.7424 19.6778 19.938C20.0394 20.1336 20.3178 20.471 20.4561 20.8811C20.5943 21.2912 20.5819 21.7428 20.4213 22.1434L20.3374 22.3227L19.5457 23.8022C19.3433 24.1786 19.0153 24.4575 18.6287 24.5819C18.2421 24.7063 17.8261 24.6668 17.4656 24.4714C17.1051 24.2761 16.8273 23.9396 16.689 23.5308C16.5506 23.1219 16.5621 22.6715 16.7211 22.2715L16.8034 22.0938L17.5951 20.6144ZM11.5309 14.8624C11.8946 15.089 12.1599 15.4621 12.2686 15.8997C12.3773 16.3374 12.3204 16.8037 12.1104 17.196L11.3187 18.6754C11.1073 19.0646 10.7617 19.3477 10.3575 19.463C9.95331 19.5784 9.52323 19.5165 9.16114 19.2909C8.79905 19.0653 8.53435 18.6944 8.4248 18.2591C8.31526 17.8237 8.36975 17.3593 8.57641 16.9671L9.36807 15.4877C9.57804 15.0953 9.92387 14.809 10.3295 14.6918C10.7351 14.5745 11.1672 14.6359 11.5309 14.8624ZM12.5347 9.57003L23.5041 16.4034C23.924 15.6186 24.0378 14.6861 23.8204 13.8108C23.6031 12.9355 23.0724 12.1893 22.3451 11.7362L16.8604 8.31953C16.1331 7.86647 15.2688 7.74369 14.4575 7.97821C13.6463 8.21272 12.9547 8.78531 12.5347 9.57003Z" fill="#726E6E" fill-opacity="0.92"/>
</svg>
