<svg width="76" height="86" viewBox="0 0 76 86" fill="none" xmlns="http://www.w3.org/2000/svg">
<path d="M74.6535 22.4533C71.2658 37.2939 64.388 50.8395 54.7397 61.6726C45.0915 72.5057 33.0275 80.2282 19.81 84.0319C9.64025 86.9386 1 77.1199 1 65.3333V59.9999C1 57.0559 3.13275 54.6933 5.7405 54.3999C10.0655 53.9213 14.3109 52.7744 18.3565 50.9919L25.5765 59.0986C37.3324 52.7714 46.8121 42.1275 52.4473 28.9279L45.2272 20.8213C46.8164 16.2791 47.8394 11.5123 48.2673 6.65592C48.5238 3.72259 50.628 1.33325 53.25 1.33325H58C68.4975 1.33325 77.2423 11.0346 74.6535 22.4533Z" stroke="white" stroke-linecap="round" stroke-linejoin="round"/>
</svg>
