<svg width="22" height="20" viewBox="0 0 22 20" fill="none" xmlns="http://www.w3.org/2000/svg">
<path d="M0.323242 19.3903V10.6032C0.323242 10.083 0.426353 9.52878 0.632576 8.94063C0.838798 8.35248 1.13846 7.91078 1.53158 7.61553V3.57345C1.53158 2.58226 1.76398 1.74865 2.22878 1.07263C2.69359 0.396606 3.26674 0.0585938 3.94824 0.0585938H9.38574C9.80221 0.0585938 10.1579 0.183371 10.4527 0.432925C10.7467 0.681308 10.9952 1.02518 11.1982 1.46454C11.4012 1.02518 11.6498 0.681308 11.9438 0.432925C12.2386 0.183371 12.5943 0.0585938 13.0107 0.0585938H18.4482C19.1297 0.0585938 19.7029 0.396606 20.1677 1.07263C20.6325 1.74865 20.8649 2.58226 20.8649 3.57345V7.61553C21.2588 7.91078 21.5585 8.35248 21.7639 8.94063C21.9701 9.52878 22.0732 10.083 22.0732 10.6032V19.3903H20.8649V15.8754H1.53158V19.3903H0.323242ZM11.8024 7.0883H19.6566V3.57345C19.6566 3.07551 19.5406 2.65841 19.3086 2.32216C19.0766 1.9859 18.7898 1.81719 18.4482 1.81602H13.0107C12.6684 1.81602 12.3816 1.98473 12.1504 2.32216C11.9192 2.65959 11.8032 3.07668 11.8024 3.57345V7.0883ZM2.73991 7.0883H10.5941V3.57345C10.5941 3.07551 10.4781 2.65841 10.2461 2.32216C10.0141 1.9859 9.7273 1.81719 9.38574 1.81602H3.94824C3.60588 1.81602 3.3191 1.98473 3.08791 2.32216C2.85671 2.65959 2.74071 3.07668 2.73991 3.57345V7.0883ZM1.53158 14.118H20.8649V10.6032C20.8649 10.1052 20.7489 9.68812 20.5169 9.35186C20.2849 9.01561 19.9981 8.8469 19.6566 8.84573H2.73991C2.39755 8.84573 2.11077 9.01444 1.87958 9.35186C1.64838 9.68929 1.53238 10.1064 1.53158 10.6032V14.118Z" fill="black"/>
</svg>
